<svg xmlns="http://www.w3.org/2000/svg" xmlns:xlink="http://www.w3.org/1999/xlink" viewBox="0 0 42 44.17"><defs><style>.cls-1{isolation:isolate;}.cls-2{opacity:0.8;mix-blend-mode:multiply;fill:url(#radial-gradient);}.cls-3{fill:#000a42;}.cls-4{fill:#fff;}</style><radialGradient id="radial-gradient" cx="21" cy="23.17" r="21" gradientUnits="userSpaceOnUse"><stop offset="0" stop-color="#000056"/><stop offset="0.39" stop-color="#7373a2" stop-opacity="0.55"/><stop offset="0.78" stop-color="#d9d9e6" stop-opacity="0.15"/><stop offset="1" stop-color="#fff" stop-opacity="0"/></radialGradient></defs><title>s-instagram</title><g class="cls-1"><g id="Livello_2" data-name="Livello 2"><g id="ELEMENTS"><circle class="cls-2" cx="21" cy="23.17" r="21"/><rect class="cls-3" x="0.73" width="29.24" height="29.24" transform="translate(29.97 -0.73) rotate(90)"/><path class="cls-4" d="M19.89,9.11a1,1,0,1,0,1,1A1,1,0,0,0,19.89,9.11Z"/><path class="cls-4" d="M15.42,10.4a4.22,4.22,0,1,0,4.22,4.22A4.22,4.22,0,0,0,15.42,10.4Zm0,6.93a2.71,2.71,0,1,1,2.7-2.71A2.72,2.72,0,0,1,15.42,17.33Z"/><path class="cls-4" d="M18.77,23.19H11.92A5.15,5.15,0,0,1,6.78,18V11.2a5.15,5.15,0,0,1,5.14-5.15h6.85a5.16,5.16,0,0,1,5.15,5.15V18A5.16,5.16,0,0,1,18.77,23.19ZM11.92,7.66A3.54,3.54,0,0,0,8.39,11.2V18a3.54,3.54,0,0,0,3.53,3.54h6.85A3.55,3.55,0,0,0,22.31,18V11.2a3.55,3.55,0,0,0-3.54-3.54Z"/></g></g></g></svg>